<svg xmlns="http://www.w3.org/2000/svg" xmlns:xlink="http://www.w3.org/1999/xlink" viewBox="0 0 1366 768"><defs><style>.cls-1{fill:url(#Dégradé_sans_nom_3);}</style><linearGradient id="Dégradé_sans_nom_3" x1="-0.5" y1="384.25" x2="833.5" y2="384.25" gradientTransform="matrix(1, 0, 0, -1, 0, 768.5)" gradientUnits="userSpaceOnUse"><stop offset="0" stop-color="#2af598"/><stop offset="1" stop-color="#08b3e5"/></linearGradient></defs><title>find_pharma</title><g id="Calque_1" data-name="Calque 1"><polygon class="cls-1" points="-0.5 768 358 768.5 833.5 0 412 0.5 0 666.5 -0.5 768"/><path d="M527.49,410.23a10.35,10.35,0,0,0,.55-3.31V285.63a10.42,10.42,0,0,0-10.42-10.41H459.67v129.1a17.53,17.53,0,0,1-1,5.91h-6.8a10.35,10.35,0,0,0,.54-3.31V240.34A10.41,10.41,0,0,0,442,229.93H351a10.41,10.41,0,0,0-10.41,10.41V406.92a10.35,10.35,0,0,0,.55,3.31h-6.8a17.53,17.53,0,0,1-1-5.91V275.22H276.77a10.41,10.41,0,0,0-10.41,10.41V406.92a10.35,10.35,0,0,0,.54,3.31H249v21.52H544V410.23ZM297.59,367.7H282.66V352.78h14.93Zm0-26.19H282.66V326.58h14.93Zm0-25.34H282.66V301.25h14.93Zm23.25,51.53H305.92V352.78h14.92Zm0-26.19H305.92V326.58h14.92Zm0-25.34H305.92V301.25h14.92Zm98.83,93.36H375.85V354.87h43.82ZM396.5,308a36.7,36.7,0,1,1,36.7-36.7A36.7,36.7,0,0,1,396.5,308Zm94.75,59.69H476.33V352.78h14.92Zm0-26.19H476.33V326.58h14.92Zm0-25.34H476.33V301.25h14.92ZM514.5,367.7H499.58V352.78H514.5Zm0-26.19H499.58V326.58H514.5Zm0-25.34H499.58V301.25H514.5Zm-108.89-54h14.05v18.22H405.61v14.06H387.39V280.42H373.33V262.2h14.06v-14h18.22Z"/></g></svg>