<svg id="Calque_1" data-name="Calque 1" xmlns="http://www.w3.org/2000/svg" xmlns:xlink="http://www.w3.org/1999/xlink" viewBox="0 0 482.36 49.42"><defs><style>.cls-1{fill:url(#Dégradé_sans_nom_3);}.cls-2{fill:url(#Dégradé_sans_nom_3-2);}</style><linearGradient id="Dégradé_sans_nom_3" x1="10.03" y1="46.64" x2="47.19" y2="46.64" gradientUnits="userSpaceOnUse"><stop offset="0" stop-color="#2af598"/><stop offset="1" stop-color="#08b3e5"/></linearGradient><linearGradient id="Dégradé_sans_nom_3-2" x1="305.89" y1="46.64" x2="344.61" y2="46.64" xlink:href="#Dégradé_sans_nom_3"/></defs><title>logo_off</title><path class="cls-1" d="M47.19,37.48a14.37,14.37,0,0,1-4,10.6q-4,4.06-13.64,4.13H23.23V64.59h6.22v6H10v-6h6V28.69H10v-6h17.8a34,34,0,0,1,11.44,1.55A11.07,11.07,0,0,1,45.35,29,16.78,16.78,0,0,1,47.19,37.48Zm-7.33-.16q0-4.47-2.63-6.55c-1.76-1.38-4.76-2.08-9-2.08h-5V46.43h4.48a24.67,24.67,0,0,0,7-.81,6.62,6.62,0,0,0,3.87-2.79A10.34,10.34,0,0,0,39.86,37.32Z" transform="translate(-10.03 -21.93)"/><path d="M63.41,28.69V42.21H84.2V28.69H78.61v-6H96.93v6H91.4v35.9h5.53v6H78.61v-6H84.2V48.18H63.41V64.59h5.65v6H50.78v-6h5.4V28.69h-5.4v-6H69.06v6Z" transform="translate(-10.03 -21.93)"/><path d="M131.78,28.5l12.95,36.09h5.33v6H131.2v-6h6.26l-3.72-10.86H116.38l-3.71,10.86h6.06v6h-19v-6h5.78L118.41,28.5h-5.74V22.73h24.85V28.5Zm-6.54,0H125l-6.76,19.62h13.58Z" transform="translate(-10.03 -21.93)"/><path d="M189.13,35.26A11.65,11.65,0,0,1,186.52,43a13.34,13.34,0,0,1-7.26,4.3l8.44,17.3h5.84v6H182.81L172.24,48.27h-6.69V64.59h6.09v6H151.83v-6h6.48V28.69h-6.48v-6H171.7q9.24,0,13.33,3T189.13,35.26Zm-7.46-.13a5.66,5.66,0,0,0-2.1-4.88q-2.08-1.56-6.63-1.56h-7.39V42.28h6.95c3.11,0,5.41-.54,6.92-1.62S181.67,37.74,181.67,35.13Z" transform="translate(-10.03 -21.93)"/><path d="M237.94,22.73h16.57v6h-5.78v35.9h5.78v6h-18v-6h5.65V28.69L225.72,71.06h-1.43L208,28.69v35.9h5.27v6h-17v-6h5.81V28.69h-5.81v-6h16.41l12.6,32.75Z" transform="translate(-10.03 -21.93)"/><path d="M289.61,28.5l12.95,36.09h5.33v6H289v-6h6.25l-3.71-10.86H274.22L270.5,64.59h6.07v6h-19v-6h5.77L276.25,28.5H270.5V22.73h24.86V28.5Zm-6.54,0h-.22l-6.76,19.62h13.58Z" transform="translate(-10.03 -21.93)"/><path class="cls-2" d="M338.71,40.21V28.69h-9.87v35.9h6.22v6H315.51v-6h6.09V28.69h-9.8V40.21h-5.91V22.73h38.72V40.21Z" transform="translate(-10.03 -21.93)"/><path d="M399.42,46.5a25.85,25.85,0,0,1-3.22,13,22.28,22.28,0,0,1-8.9,8.77,26.49,26.49,0,0,1-12.92,3.1,24.89,24.89,0,0,1-12.69-3.22A22.49,22.49,0,0,1,353,59.21a26.51,26.51,0,0,1-3.1-12.84,25.14,25.14,0,0,1,3.16-12.63,22.63,22.63,0,0,1,8.71-8.68,25.29,25.29,0,0,1,12.64-3.13,26.07,26.07,0,0,1,13,3.22A22.81,22.81,0,0,1,396.3,34,25.25,25.25,0,0,1,399.42,46.5ZM374.67,65a15.55,15.55,0,0,0,8.79-2.57,17.2,17.2,0,0,0,6-6.83,20.08,20.08,0,0,0,2.11-9.07,19.18,19.18,0,0,0-2.23-9.13,17.09,17.09,0,0,0-6.18-6.63,16.54,16.54,0,0,0-8.88-2.43,15.53,15.53,0,0,0-14.4,8.89,20.67,20.67,0,0,0-2,9.23,21.82,21.82,0,0,0,2,9.62,15.46,15.46,0,0,0,5.89,6.57A16.71,16.71,0,0,0,374.67,65Z" transform="translate(-10.03 -21.93)"/><path d="M413.39,28.69l8.92,31.45,8.82-31.45h-5.71v-6h22v6h-5.65l8.73,31.45,9-31.45h-5.65v-6h17.55v6h-5.52L453.7,71.06h-6.76L436.15,33,425.42,71.06h-6.7L406.5,28.69h-5.65v-6h18.28v6Z" transform="translate(-10.03 -21.93)"/><path d="M487.18,28.69v35.9h5.21v6H474.77v-6h5.17V28.69h-5.17v-6h17.62v6Z" transform="translate(-10.03 -21.93)"/></svg>