<svg id="Calque_1" data-name="Calque 1" xmlns="http://www.w3.org/2000/svg" xmlns:xlink="http://www.w3.org/1999/xlink" viewBox="0 0 468.08 58.18"><defs><style>.cls-1{fill:url(#Dégradé_sans_nom_3);}.cls-2{fill:#fff;}.cls-3{fill:url(#Dégradé_sans_nom_3-2);}.cls-4{fill:url(#Dégradé_sans_nom_3-3);}.cls-5{fill:url(#Dégradé_sans_nom_3-4);}</style><linearGradient id="Dégradé_sans_nom_3" x1="10.24" y1="48.47" x2="53.89" y2="48.47" gradientUnits="userSpaceOnUse"><stop offset="0" stop-color="#2af598"/><stop offset="1" stop-color="#08b3e5"/></linearGradient><linearGradient id="Dégradé_sans_nom_3-2" x1="183.38" y1="56.71" x2="252.37" y2="56.71" xlink:href="#Dégradé_sans_nom_3"/><linearGradient id="Dégradé_sans_nom_3-3" x1="299.19" y1="48.47" x2="344.66" y2="48.47" xlink:href="#Dégradé_sans_nom_3"/><linearGradient id="Dégradé_sans_nom_3-4" x1="391.51" y1="57.3" x2="455.4" y2="57.3" xlink:href="#Dégradé_sans_nom_3"/></defs><title>logo_off</title><path class="cls-1" d="M53.89,37.72q0,7.66-4.73,12.45T33.13,55H25.75V69.55h7.31v7H10.24v-7h7V27.39h-7v-7H31.15q8.46,0,13.44,1.83a13,13,0,0,1,7.14,5.57Q53.89,31.53,53.89,37.72Zm-8.61-.19q0-5.25-3.09-7.7c-2.07-1.62-5.59-2.44-10.59-2.44H25.75V48.23H31a29.21,29.21,0,0,0,8.28-.95A7.87,7.87,0,0,0,43.83,44,12.21,12.21,0,0,0,45.28,37.53Z" transform="translate(-10.24 -19.53)"/><path class="cls-2" d="M85,36.34q10.92,0,10.92,11.81V69.7h6.63v6.85H88.18V50.91c0-2.81-.4-4.78-1.21-5.93a4.29,4.29,0,0,0-3.75-1.71q-4.27,0-11.14,5V69.7h6.78v6.85H57.36V69.7h7V27.17h-7V20.38H72.08V42Q79,36.34,85,36.34Z" transform="translate(-10.24 -19.53)"/><path class="cls-2" d="M139,51.21V69.7h6.56v6.85H132.24v-4.8q-5.6,5.48-12.45,5.48a13.45,13.45,0,0,1-11.42-6.17,11.77,11.77,0,0,1,.18-12.82,13,13,0,0,1,5.39-4.46,16.19,16.19,0,0,1,6.82-1.57,18.74,18.74,0,0,1,10.7,3.36V51.36c0-3.06-.65-5.24-1.94-6.56s-3.42-2-6.38-2A10.88,10.88,0,0,0,117.91,44a9.09,9.09,0,0,0-3.49,3.45L107,45.58a16.54,16.54,0,0,1,6.75-6.95,21,21,0,0,1,10.1-2.29q7.86,0,11.5,3.58T139,51.21ZM120.83,71.3q5.67,0,10.63-4.73V62q-5-3.91-10.07-3.91A7.78,7.78,0,0,0,116.12,60a6.43,6.43,0,0,0-.28,9.46A7,7,0,0,0,120.83,71.3Z" transform="translate(-10.24 -19.53)"/><path class="cls-2" d="M164.22,60.83V69.7h8.54v6.85h-24V69.7h7.87V44.28h-7.87v-6.9h14v8.87Q165,41,168.52,38.93t10-2.07h1.75v7.79h-1.68q-6.25,0-9.32,1.64a8,8,0,0,0-4,5A35.38,35.38,0,0,0,164.22,60.83Z" transform="translate(-10.24 -19.53)"/><path class="cls-3" d="M190.42,69.7V44.28h-6.59v-6.9H198.1v5q6.9-5.48,13.53-5.48,6.78,0,9.32,6.11,7.53-6.11,14.2-6.11a10.25,10.25,0,0,1,7.55,2.79q2.81,2.81,2.81,8.58V69.7h6.86v6.85h-14.5V51.73a27.37,27.37,0,0,0-.26-4.17,4.94,4.94,0,0,0-1.36-2.73,4.72,4.72,0,0,0-3.48-1.11,12.51,12.51,0,0,0-5,1.26,27.84,27.84,0,0,0-6,3.81V69.7h6.64v6.85H214.13V50.76q0-3.76-1.14-5.4a4.22,4.22,0,0,0-3.74-1.64q-4.26,0-11.15,5.07V69.7H205v6.85H183.38V69.7Z" transform="translate(-10.24 -19.53)"/><path class="cls-2" d="M288.64,51.21V69.7h6.56v6.85H281.85v-4.8q-5.58,5.48-12.44,5.48a13.3,13.3,0,0,1-6.62-1.68A13.48,13.48,0,0,1,258,71.06a11.38,11.38,0,0,1-1.81-6.25,11.26,11.26,0,0,1,2-6.57,13,13,0,0,1,5.38-4.46,16.22,16.22,0,0,1,6.82-1.57,18.69,18.69,0,0,1,10.7,3.36V51.36c0-3.06-.65-5.24-1.94-6.56s-3.41-2-6.37-2A10.92,10.92,0,0,0,267.52,44,9.13,9.13,0,0,0,264,47.41l-7.38-1.83a16.46,16.46,0,0,1,6.74-6.95,21,21,0,0,1,10.1-2.29q7.88,0,11.5,3.58T288.64,51.21ZM270.45,71.3q5.67,0,10.62-4.73V62q-5-3.91-10.06-3.91A7.81,7.81,0,0,0,265.73,60a6.45,6.45,0,0,0-.28,9.46A7,7,0,0,0,270.45,71.3Z" transform="translate(-10.24 -19.53)"/><path class="cls-4" d="M337.73,40.92V27.39h-11.6V69.55h7.31v7h-23v-7h7.16V27.39H306.12V40.92h-6.93V20.38h45.47V40.92Z" transform="translate(-10.24 -19.53)"/><path class="cls-2" d="M387.37,57a20.51,20.51,0,0,1-2.72,10.44,20.28,20.28,0,0,1-17.81,10.25A20.73,20.73,0,0,1,356.21,75a19.47,19.47,0,0,1-7.36-7.49A21.16,21.16,0,0,1,346.22,57a21.49,21.49,0,0,1,2.63-10.66A19,19,0,0,1,356.18,39a21.27,21.27,0,0,1,10.66-2.66,19.93,19.93,0,0,1,10.47,2.81A20.64,20.64,0,0,1,387.37,57Zm-20.53,13.2a11.74,11.74,0,0,0,6.3-1.79,12.47,12.47,0,0,0,4.47-4.81,13.82,13.82,0,0,0,1.6-6.6,13.68,13.68,0,0,0-1.6-6.52,12.89,12.89,0,0,0-4.47-4.86,11.9,11.9,0,0,0-12.68,0A12.87,12.87,0,0,0,356,50.46a13.94,13.94,0,0,0,0,13.12,12.57,12.57,0,0,0,4.55,4.85A11.9,11.9,0,0,0,366.84,70.22Z" transform="translate(-10.24 -19.53)"/><path class="cls-5" d="M402.88,44.28l7.42,23.59,7.45-23.59h-4.17v-6.9H432.4v6.9h-4.32l7.56,23.59,7.53-23.59h-5.4v-6.9H455.4v6.9h-5.67l-10.43,33H432l-9-28.29L414,77.23h-7.19L396.25,44.28h-4.74v-6.9H408v6.9Z" transform="translate(-10.24 -19.53)"/><path class="cls-2" d="M478.32,69.7v6.85H458.53V69.7h6.11V44.28h-6.11v-6.9h13.83V69.7Zm-5.51-45.51a4.7,4.7,0,0,1-4.66,4.65,4.37,4.37,0,0,1-3.25-1.37,4.68,4.68,0,0,1,0-6.56,4.38,4.38,0,0,1,3.25-1.38,4.59,4.59,0,0,1,4.66,4.66Z" transform="translate(-10.24 -19.53)"/></svg>