<svg xmlns="http://www.w3.org/2000/svg" xmlns:xlink="http://www.w3.org/1999/xlink" viewBox="0 0 1366 768"><defs><style>.cls-1{fill:url(#Dégradé_sans_nom_3);}</style><linearGradient id="Dégradé_sans_nom_3" x1="-0.5" y1="384.25" x2="833.5" y2="384.25" gradientTransform="matrix(1, 0, 0, -1, 0, 768.5)" gradientUnits="userSpaceOnUse"><stop offset="0" stop-color="#2af598"/><stop offset="1" stop-color="#08b3e5"/></linearGradient></defs><title>order</title><g id="Calque_1" data-name="Calque 1"><polygon class="cls-1" points="-0.5 768 358 768.5 833.5 0 412 0.5 0 666.5 -0.5 768"/><path d="M491.67,352.43H403.28l-12.94,12.94h24.75v78.78H354.8a39.42,39.42,0,0,1-38.12-29.66l-1.41,0a63.73,63.73,0,0,1-12.08-1.17,52.4,52.4,0,0,0,51.61,43.73H491.67a52.33,52.33,0,1,0,0-104.65Zm-11.92,91.06H436.42a5.55,5.55,0,0,1,0-11.09h43.33a5.55,5.55,0,1,1,0,11.09Zm22.11,0h-2.15a5.55,5.55,0,1,1,0-11.09h2.15a5.55,5.55,0,0,1,0,11.09Zm-52.8-225.22a52.47,52.47,0,0,0-74,0l-96.78,96.78a52.33,52.33,0,0,0,74,74l96.78-96.79a52.46,52.46,0,0,0,0-74ZM343.13,379.9a39.39,39.39,0,0,1-55.71-55.7l42.63-42.63,55.71,55.7ZM431,291.09l-30.63,30.63a5.55,5.55,0,0,1-7.85-7.84l30.64-30.63a5.54,5.54,0,1,1,7.84,7.84Zm15.63-15.63L445.12,277a5.55,5.55,0,0,1-7.84-7.85l1.52-1.52a5.55,5.55,0,1,1,7.84,7.85Z"/></g></svg>