<svg id="Calque_1" data-name="Calque 1" xmlns="http://www.w3.org/2000/svg" xmlns:xlink="http://www.w3.org/1999/xlink" viewBox="0 0 1366 768"><defs><style>.cls-1{fill:url(#Dégradé_sans_nom_3);}.cls-2{fill:url(#Dégradé_sans_nom_3-2);}.cls-3{fill:url(#Dégradé_sans_nom_3-3);}.cls-4{fill:url(#Dégradé_sans_nom_3-4);}.cls-5{fill:url(#Dégradé_sans_nom_3-5);}.cls-6{fill:url(#Dégradé_sans_nom_3-6);}.cls-7{fill:url(#Dégradé_sans_nom_3-7);}.cls-8{fill:url(#Dégradé_sans_nom_3-8);}.cls-9{fill:url(#Dégradé_sans_nom_3-9);}.cls-10{fill:url(#Dégradé_sans_nom_3-10);}.cls-11{fill:url(#Dégradé_sans_nom_3-11);}.cls-12{fill:url(#Dégradé_sans_nom_3-12);}.cls-13{fill:url(#Dégradé_sans_nom_3-13);}.cls-14{fill:url(#Dégradé_sans_nom_3-14);}.cls-15{fill:url(#Dégradé_sans_nom_3-15);}.cls-16{fill:url(#Dégradé_sans_nom_3-16);}.cls-17{fill:url(#Dégradé_sans_nom_3-17);}.cls-18{fill:url(#Dégradé_sans_nom_3-18);}.cls-19{fill:url(#Dégradé_sans_nom_3-19);}.cls-20{opacity:0.3;fill:url(#Dégradé_sans_nom_3-20);}.cls-21{fill:url(#Dégradé_sans_nom_3-21);}.cls-22{fill:url(#Dégradé_sans_nom_3-22);}.cls-23{fill:url(#Dégradé_sans_nom_3-23);}.cls-24{fill:url(#Dégradé_sans_nom_3-24);}.cls-25{fill:url(#Dégradé_sans_nom_3-25);}.cls-26{fill:url(#Dégradé_sans_nom_3-26);}.cls-27{fill:url(#Dégradé_sans_nom_3-27);}.cls-28{fill:url(#Dégradé_sans_nom_3-28);}.cls-29{fill:url(#Dégradé_sans_nom_3-29);}.cls-30{fill:#fff;}</style><linearGradient id="Dégradé_sans_nom_3" x1="151.62" y1="237.68" x2="841" y2="237.68" gradientUnits="userSpaceOnUse"><stop offset="0" stop-color="#2af598"/><stop offset="1" stop-color="#08b3e5"/></linearGradient><linearGradient id="Dégradé_sans_nom_3-2" x1="653" y1="299.69" x2="1366" y2="299.69" xlink:href="#Dégradé_sans_nom_3"/><linearGradient id="Dégradé_sans_nom_3-3" x1="0" y1="192" x2="152" y2="192" xlink:href="#Dégradé_sans_nom_3"/><linearGradient id="Dégradé_sans_nom_3-4" x1="0" y1="237.5" x2="653" y2="237.5" xlink:href="#Dégradé_sans_nom_3"/><linearGradient id="Dégradé_sans_nom_3-5" x1="0" y1="576" x2="653" y2="576" xlink:href="#Dégradé_sans_nom_3"/><linearGradient id="Dégradé_sans_nom_3-6" x1="792" y1="181" x2="1366" y2="181" xlink:href="#Dégradé_sans_nom_3"/><linearGradient id="Dégradé_sans_nom_3-7" x1="841" y1="181" x2="1366" y2="181" xlink:href="#Dégradé_sans_nom_3"/><linearGradient id="Dégradé_sans_nom_3-8" x1="1133.78" y1="565" x2="1366" y2="565" xlink:href="#Dégradé_sans_nom_3"/><linearGradient id="Dégradé_sans_nom_3-9" x1="653" y1="583.5" x2="1366" y2="583.5" xlink:href="#Dégradé_sans_nom_3"/><linearGradient id="Dégradé_sans_nom_3-10" x1="653" y1="299.5" x2="921.55" y2="299.5" xlink:href="#Dégradé_sans_nom_3"/><linearGradient id="Dégradé_sans_nom_3-11" x1="792" y1="278.5" x2="1226.28" y2="278.5" xlink:href="#Dégradé_sans_nom_3"/><linearGradient id="Dégradé_sans_nom_3-12" x1="0" y1="192" x2="409.06" y2="192" xlink:href="#Dégradé_sans_nom_3"/><linearGradient id="Dégradé_sans_nom_3-13" x1="0" y1="486.98" x2="344" y2="486.98" xlink:href="#Dégradé_sans_nom_3"/><linearGradient id="Dégradé_sans_nom_3-14" x1="0" y1="576" x2="111.05" y2="576" xlink:href="#Dégradé_sans_nom_3"/><linearGradient id="Dégradé_sans_nom_3-15" x1="258.02" y1="359.5" x2="653" y2="359.5" xlink:href="#Dégradé_sans_nom_3"/><linearGradient id="Dégradé_sans_nom_3-16" x1="874.17" y1="376.15" x2="1103.5" y2="376.15" xlink:href="#Dégradé_sans_nom_3"/><linearGradient id="Dégradé_sans_nom_3-17" x1="792" y1="263.5" x2="1103" y2="263.5" xlink:href="#Dégradé_sans_nom_3"/><linearGradient id="Dégradé_sans_nom_3-18" x1="792" y1="198.28" x2="1000.37" y2="198.28" xlink:href="#Dégradé_sans_nom_3"/><linearGradient id="Dégradé_sans_nom_3-19" x1="988.83" y1="472.39" x2="1226.28" y2="472.39" xlink:href="#Dégradé_sans_nom_3"/><linearGradient id="Dégradé_sans_nom_3-20" x1="653" y1="479.53" x2="989" y2="479.53" xlink:href="#Dégradé_sans_nom_3"/><linearGradient id="Dégradé_sans_nom_3-21" x1="978" y1="479.5" x2="1182.77" y2="479.5" xlink:href="#Dégradé_sans_nom_3"/><linearGradient id="Dégradé_sans_nom_3-22" x1="1171.19" y1="575.04" x2="1226" y2="575.04" xlink:href="#Dégradé_sans_nom_3"/><linearGradient id="Dégradé_sans_nom_3-23" x1="455.51" y1="333.5" x2="765.07" y2="333.5" xlink:href="#Dégradé_sans_nom_3"/><linearGradient id="Dégradé_sans_nom_3-24" x1="152" y1="144" x2="496.31" y2="144" xlink:href="#Dégradé_sans_nom_3"/><linearGradient id="Dégradé_sans_nom_3-25" x1="472.86" y1="96" x2="841" y2="96" xlink:href="#Dégradé_sans_nom_3"/><linearGradient id="Dégradé_sans_nom_3-26" x1="841" y1="90.33" x2="1366" y2="90.33" xlink:href="#Dégradé_sans_nom_3"/><linearGradient id="Dégradé_sans_nom_3-27" x1="1103" y1="187.88" x2="1275.36" y2="187.88" xlink:href="#Dégradé_sans_nom_3"/><linearGradient id="Dégradé_sans_nom_3-28" x1="1250" y1="118.75" x2="1366" y2="118.75" xlink:href="#Dégradé_sans_nom_3"/><linearGradient id="Dégradé_sans_nom_3-29" x1="1275" y1="300" x2="1366" y2="300" xlink:href="#Dégradé_sans_nom_3"/></defs><title>profile_page_2</title><polygon class="cls-1" points="151.62 0 653.01 475.36 841 0 151.62 0"/><polygon class="cls-2" points="1366 361.82 791.81 124.39 653 475 1366 361.82"/><polygon class="cls-3" points="0 0 152 0 0 384 0 0"/><polygon class="cls-4" points="653 475 0 384 152 0 653 475"/><path class="cls-5" d="M0,768S259,475,653,475L0,384Z"/><polygon class="cls-6" points="792 124 841 0 1366 362 792 124"/><polygon class="cls-7" points="1366 0 1366 362 841 0 1366 0"/><polygon class="cls-8" points="1366 768 1133.79 398.68 1366 362 1366 768"/><path class="cls-9" d="M653,475s365-14,713,293L1134,399Z"/><polygon class="cls-10" points="792 124 921.55 432.57 653 475 792 124"/><polygon class="cls-11" points="792 124 1226.28 384 922 433 792 124"/><polygon class="cls-12" points="0 384 409.06 243.72 152 0 0 384"/><polygon class="cls-13" points="0 384 231.24 589.95 344 433 0 384"/><polygon class="cls-14" points="0 768 111.05 482.91 0 384 0 768"/><polygon class="cls-15" points="653 475 258.01 420.75 409 244 653 475"/><polygon class="cls-16" points="874.17 319.3 941.58 344.05 1103.5 403.49 922 433 874.17 319.3"/><polygon class="cls-17" points="792 124 1103 403 874 319 792 124"/><polygon class="cls-18" points="1000.37 248.75 957.6 272.56 792 124 1000.37 248.75"/><polygon class="cls-19" points="988.83 422.24 1226.28 545.78 1134 399 988.83 422.24"/><path class="cls-20" d="M978.35,537.06,989,422,653,475S796.71,471.13,978.35,537.06Z"/><polygon class="cls-21" points="978 537 1182.77 523.15 989 422 978 537"/><polygon class="cls-22" points="1226 546 1171.19 627.09 1183 523 1226 546"/><polygon class="cls-23" points="455.51 288.12 765.07 192 653 475 455.51 288.12"/><polygon class="cls-24" points="496.31 0 456 288 152 0 496.31 0"/><polygon class="cls-25" points="841 0 472.86 167.57 765 192 841 0"/><polygon class="cls-26" points="1103 180.66 1234.5 90.33 1366 0 841 0 1103 180.66"/><polygon class="cls-27" points="1275.36 299.5 1254.99 76.25 1103 181 1275.36 299.5"/><polygon class="cls-28" points="1366 237.5 1250 76 1366 0 1366 237.5"/><polygon class="cls-29" points="1275 300 1366 238 1366 362 1275 300"/><path class="cls-30" d="M0,627.09S175,475,653,475s713,152.09,713,152.09V768H0Z"/></svg>