<svg xmlns="http://www.w3.org/2000/svg" xmlns:xlink="http://www.w3.org/1999/xlink" viewBox="0 0 1366 768"><defs><style>.cls-1{fill:url(#Dégradé_sans_nom_3);}.cls-2{fill:#fff;}.cls-3,.cls-4{fill:#2af598;}.cls-3{opacity:0.7;}.cls-4{opacity:0.6;}.cls-5{fill:#6ec085;}.cls-5,.cls-7{opacity:0.4;}.cls-6{fill:#14e700;opacity:0.2;}.cls-7{fill:#08b3e5;}</style><linearGradient id="Dégradé_sans_nom_3" y1="384" x2="1366" y2="384" gradientUnits="userSpaceOnUse"><stop offset="0" stop-color="#2af598"/><stop offset="1" stop-color="#08b3e5"/></linearGradient></defs><title>profile_page_4</title><g id="Calque_1" data-name="Calque 1"><rect class="cls-1" width="1366" height="768"/><path class="cls-2" d="M970.21,0s-34,180.89,180.9,180.89S1366,326.16,1366,326.16V0Z"/></g><g id="Calque_3" data-name="Calque 3"><path class="cls-3" d="M0,423s162-218,373,0,888.82,72.26,888.82,72.26L1220,643H93L0,496.67Z"/><path class="cls-4" d="M1366,415s-290-236-594,0S238.11,539.31,238.11,539.31L421,684l688,9,257-159Z"/><path class="cls-5" d="M120.61,505.94s277-255.86,489.67,24.1S747,606,747,606l-307-4L158,562l-37.39-56.06"/><path class="cls-6" d="M1241.76,501.56S927,210,649,437c0,0-77.78,114.31-444.89,93.65h0L541.68,693l709.17-159-9.09-32.44"/><path class="cls-7" d="M108,507.88c25.27-59.36,316.62-5.67,348,.12,0,0,277.29,51.1,352.58,9.47,17.81-9.85,37.8-21.84,37.8-21.84,23-13.8,41.64-25.94,54.62-34.63,29.08-21.7,75-48.36,129.88-45.68C1064.31,417,1104.8,409.8,1192,497c184.5,184.5,220,79,220,79V681L237,658C117.27,567.78,99.57,527.63,108,507.88Z"/></g><g id="Calque_2" data-name="Calque 2"><path class="cls-2" d="M0,459s587,294,1366,0V768H0Z"/></g></svg>