<svg height="512pt" viewBox="0 -61 512.00025 512" width="512pt" xmlns="http://www.w3.org/2000/svg"><path d="m161.023438 242.699219c-35.515626 30.253906-35.289063 83.546875-1.199219 113.699219l-6.300781 6.601562c-17.398438 17.398438-40.5 26.097656-63.597657 26.097656-23.101562 0-46.199219-8.699218-63.601562-26.097656-35.097657-35.101562-35.097657-92.398438 0-127.5 4.199219-4.199219 40.199219-40.199219 63.898437-63.902344l39.300782-2.996094 59.101562 59.398438c-10.199219 2.699219-19.800781 7.800781-27.601562 14.699219zm0 0" fill="#00c8c8"/><path d="m254.925781 225h-45.601562c-17.007813 0-35.058594 5.984375-48.300781 17.699219l-70.800782-71.101563c93.175782-93.171875 87.546875-88.664062 99.902344-96.898437l8.398438 13.199219c13.96875 46.5625 36.0625 57.421874 54.300781 75.902343-3 20.097657-2.398438 40.800781 2.101562 61.199219zm0 0" fill="#bbdcff"/><path d="m255.152344 180.71875c-3.207032 0-6.441406-1.027344-9.183594-3.148438-42.773438-33.238281-67.292969-83.292968-67.292969-137.332031v-25.238281c0-8.289062 6.707031-15 15-15h25.238281c40.679688 0 80.171876 14.28125 111.195313 40.226562 6.355469 5.316407 6.496094 14.257813 1.890625 21.136719l-64.980469 113.554688zm0 0" fill="#6b0"/><path d="m269.160156 107.769531-22.164062-22.164062c-5.859375-5.859375-5.859375-15.351563 0-21.210938s15.351562-5.859375 21.210937 0l22.164063 22.164063c5.855468 5.859375 5.855468 15.351562 0 21.210937-5.859375 5.859375-15.351563 5.859375-21.210938 0zm0 0" fill="#c3ea21"/><path d="m293.796875 240h-36.195313c-7.074218 0-13.183593-4.9375-14.664062-11.851562-11.996094-55.972657 1.757812-113.597657 37.75-158.113282 35.976562-44.503906 89.441406-70.035156 146.671875-70.035156h40.242187c8.289063 0 15 6.710938 15 15v40.238281c0 44.429688-14.882812 85.929688-43.039062 119.972657-34.042969 41.175781-87.171875 64.789062-145.765625 64.789062zm0 0" fill="#9cdd05"/><path d="m246.996094 235.605469c-5.859375-5.859375-5.859375-15.351563 0-21.210938l90-90c5.859375-5.859375 15.351562-5.859375 21.210937 0s5.859375 15.351563 0 21.210938l-90 90c-5.859375 5.859375-15.351562 5.859375-21.210937 0zm0 0" fill="#c3ea21"/><path d="m212 210c-55.808594 0-99.5625 50.863281-88.191406 108.261719 8.441406 42.585937 48.378906 71.738281 91.796875 71.738281h101.394531c8.285156 0 15-6.714844 15-15v-150c0-8.285156-6.714844-15-15-15zm0 0" fill="#64e1dc"/><path d="m422 210c-4.953125 0-110.648438 0-105 0v180c9.464844 0 109.433594 0 105 0 49.5 0 90-40.5 90-90s-40.5-90-90-90zm0 0" fill="#e0f4ff"/></svg>