<svg xmlns="http://www.w3.org/2000/svg" xmlns:xlink="http://www.w3.org/1999/xlink" viewBox="0 0 1366 768"><defs><style>.cls-1{fill:url(#Dégradé_sans_nom_3);}</style><linearGradient id="Dégradé_sans_nom_3" x1="-0.5" y1="384.25" x2="833.5" y2="384.25" gradientTransform="matrix(1, 0, 0, -1, 0, 768.5)" gradientUnits="userSpaceOnUse"><stop offset="0" stop-color="#2af598"/><stop offset="1" stop-color="#08b3e5"/></linearGradient></defs><title>talk_to</title><g id="Calque_1" data-name="Calque 1"><polygon class="cls-1" points="-0.5 768 358 768.5 833.5 0 412 0.5 0 666.5 -0.5 768"/><path d="M291,322.94a42.15,42.15,0,1,1,49.22,41.42v44.18a62.39,62.39,0,1,0,124.78,0l.15-50.61c-16.33-2.18-32.29-11.73-46.48-28a10.68,10.68,0,0,1-2.36-8.44c-18.56-24.53-30.07-57.94-30.07-83.62,0-39.65,17.77-43.76,47.15-50.49l0-.07a11,11,0,0,1,9.87-6.27,11.2,11.2,0,1,1,0,22.4,10.72,10.72,0,0,1-6.59-2.48l-.26.1c-28.52,6.55-36.22,8.32-36.22,36.81,0,22.59,10.69,52.83,27,74.67a10.75,10.75,0,0,1,7.38,3.58c8.35,9.66,21.69,21.22,37.44,21.22s29.08-11.45,37.43-21.09a10.75,10.75,0,0,1,7.36-3.57c16.38-21.91,27.09-52.2,27.09-74.82,0-28.5-7.57-30.27-36.26-36.82l-.1-.09a11.07,11.07,0,0,1-6.73,2.48,11.2,11.2,0,1,1,0-22.39,11.36,11.36,0,0,1,10,6.26h0c29.4,6.79,47.2,10.83,47.2,50.57,0,25.71-11.55,59.24-30.27,83.76A10.67,10.67,0,0,1,525.5,330c-14.18,16.2-30,25.72-46.3,27.9l0,50.61a76.47,76.47,0,0,1-152.93,0V364.35A42.11,42.11,0,0,1,291,322.94Zm42.14,28.15a28.11,28.11,0,1,0-28-28.14A28.2,28.2,0,0,0,333.17,351.09Z"/><path d="M333.17,301.94a21,21,0,1,1-21.07,21A21,21,0,0,1,333.17,301.94Z"/></g></svg>