<svg id="Capa_1" data-name="Capa 1" xmlns="http://www.w3.org/2000/svg" viewBox="0 0 512 512"><defs><style>.cls-1{fill:#32c781;}</style></defs><title>lock</title><path class="cls-1" d="M424.85,206.77h-10v-46.7c0-86.36-68.53-158.5-154.19-160-2.34,0-7,0-9.36,0-85.66,1.54-154.19,73.68-154.19,160v46.7h-10c-15.37,0-27.91,15.86-27.91,35.46V476.41C59.24,496,71.78,512,87.15,512h337.7c15.37,0,27.91-16,27.91-35.59V242.23C452.76,222.63,440.22,206.77,424.85,206.77ZM287.64,359.08v70.77a15.11,15.11,0,0,1-14.9,15H239.26a15.11,15.11,0,0,1-14.9-15V359.08a42.11,42.11,0,0,1-12.44-30.29c0-22.44,17.35-41.72,39.4-42.61,2.34-.1,7-.1,9.36,0,22.06.89,39.4,20.17,39.4,42.61A42.11,42.11,0,0,1,287.64,359.08Zm61.47-152.31H162.89v-46.7c0-51.44,41.8-94,93.11-94s93.12,42.54,93.12,94v46.7Z"/></svg>